# xmcd
# 
# Track frame offsets:
#     150
#     10911
#     25560
#     40548
#     64384
#     76417
#     89510
#     103184
#     115559
#     129530
#     143958
#     156507
#     170012
#     183791
#     194471
#     208797
#     223736
#     239672
# 
# Disc length: 3400
# 
# Revision: 1
# Processed by: cddbd v1.5.1PL0 Copyright (c) Steve Scherf et al.
# Submitted via: BonkEnc v1.0beta3
# 
DISCID=020d4612
DTITLE=The Lone Stars Country Dancers - 18 Line Dance Hits
DYEAR=1900
DGENRE=Country
TTITLE0=(You're The) Devil In Disguise
TTITLE1=It Won't Hurt
TTITLE2=Queen Of Hearts
TTITLE3=They Don't Play 'em Like They Used To
TTITLE4=Till The Day
TTITLE5=Apartment Number 9
TTITLE6=Truck Drivin' Man
TTITLE7=Yoey's Song
TTITLE8=Somewhere Between
TTITLE9=Don't Leave Her Too Lang
TTITLE10=I Fall To Pieces
TTITLE11=Navajo
TTITLE12=Crazy Arms
TTITLE13=Burning Bridges
TTITLE14=Heart Is Right
TTITLE15=South Of The Border
TTITLE16=Cast Off The Line
TTITLE17=I'm Not Gonna Cry For You
EXTD=
EXTT0=
EXTT1=
EXTT2=
EXTT3=
EXTT4=
EXTT5=
EXTT6=
EXTT7=
EXTT8=
EXTT9=
EXTT10=
EXTT11=
EXTT12=
EXTT13=
EXTT14=
EXTT15=
EXTT16=
EXTT17=
PLAYORDER=
